<?xml version="1.0" standalone="no"?>
<!DOCTYPE svg PUBLIC "-//W3C//DTD SVG 20010904//EN"
 "http://www.w3.org/TR/2001/REC-SVG-20010904/DTD/svg10.dtd">
<svg version="1.0" xmlns="http://www.w3.org/2000/svg"
 width="1000.000000pt" height="1000.000000pt" viewBox="0 0 1000.000000 1000.000000"
 preserveAspectRatio="xMidYMid meet">
<metadata>
Created by potrace 1.11, written by Peter Selinger 2001-2013
</metadata>
<g transform="translate(0.000000,1000.000000) scale(0.100000,-0.100000)"
fill="#000000" stroke="none">
<path d="M4145 9823 c12 -421 13 -513 7 -513 -22 0 -282 -65 -385 -95 -595
-177 -1173 -495 -1632 -898 -111 -98 -318 -304 -390 -389 -33 -38 -69 -80 -80
-92 -16 -16 -113 -141 -197 -253 -7 -8 0 -17 21 -27 17 -9 29 -22 27 -29 -1
-6 -1 -9 1 -4 6 9 33 9 33 -1 0 -4 29 -21 65 -36 35 -16 61 -34 58 -39 -3 -6
-1 -7 5 -3 16 9 64 -15 58 -30 -3 -8 -1 -16 5 -19 5 -4 8 -3 7 2 -3 8 5 13 20
13 5 0 18 -9 30 -20 12 -12 22 -18 22 -15 0 3 9 1 20 -5 11 -6 17 -16 14 -22
-4 -7 -3 -8 5 -4 13 8 111 -33 111 -46 0 -4 4 -7 8 -5 13 3 102 -45 97 -53 -3
-4 7 -7 22 -7 14 0 32 -8 38 -17 7 -8 15 -13 18 -9 4 3 15 0 24 -8 10 -8 36
-24 58 -34 22 -11 43 -24 47 -30 4 -5 8 -7 8 -2 0 4 22 -5 50 -20 27 -14 46
-31 43 -36 -3 -6 -1 -7 5 -4 15 10 43 -3 35 -16 -3 -5 -1 -7 5 -3 6 3 36 -7
67 -23 l57 -30 25 29 c15 19 30 27 41 24 13 -5 14 -4 3 4 -15 11 -6 36 10 26
5 -3 8 -2 7 3 -5 14 29 55 37 44 3 -6 3 -16 -1 -23 -4 -7 -3 -8 5 -4 6 4 9 16
6 27 -5 16 17 44 104 130 72 73 115 108 123 103 7 -4 10 -3 5 1 -4 5 5 21 20
37 19 20 30 25 39 17 10 -8 11 -5 7 13 -3 13 -3 20 1 16 4 -3 15 1 25 10 56
54 123 105 132 100 2 -2 3 -1 2 1 -4 6 39 41 49 41 5 0 6 -6 2 -12 -5 -9 -2
-9 9 1 20 16 23 26 5 15 -9 -5 -9 -2 1 9 7 9 17 17 22 17 5 0 18 8 29 18 11 9
23 16 26 14 2 -1 14 7 26 18 12 11 29 18 39 15 10 -3 20 -1 24 4 4 7 -1 8 -12
5 -12 -4 -10 0 7 14 13 11 28 18 32 16 4 -3 8 -1 8 4 0 8 64 42 76 41 4 0 10
3 13 8 12 17 62 44 71 38 6 -3 10 -2 10 3 0 6 12 15 28 21 15 5 38 16 52 24
38 22 74 38 92 41 9 1 22 7 29 12 17 13 144 60 145 54 0 -3 8 1 17 8 9 8 21
11 27 7 5 -3 10 -1 10 4 0 6 6 11 14 11 8 0 27 5 43 11 15 6 30 11 33 11 3 0
13 4 23 9 11 6 17 6 17 -1 0 -5 5 -10 10 -10 6 0 9 5 8 12 -2 7 7 13 18 14 12
0 26 4 33 8 7 5 11 -5 12 -31 0 -21 2 -83 4 -138 2 -55 6 -206 9 -335 4 -129
8 -318 11 -420 3 -102 7 -257 10 -345 2 -88 7 -275 11 -415 11 -421 11 -401
-6 -394 -8 3 -136 51 -285 106 -148 55 -279 104 -290 108 -11 5 -247 93 -525
195 -278 102 -512 189 -520 192 -8 4 -17 7 -20 8 -3 1 -12 5 -20 8 -8 3 -96
36 -195 73 -99 36 -238 88 -310 114 -71 26 -191 71 -265 98 -74 28 -277 102
-450 166 -173 64 -324 120 -335 125 -11 5 -54 21 -95 36 -67 24 -102 37 -178
66 -19 7 -24 5 -32 -17 -6 -14 -10 -28 -10 -31 0 -4 -15 -56 -34 -117 -19 -61
-53 -172 -76 -246 -23 -74 -57 -187 -77 -250 -19 -63 -36 -119 -37 -125 -2 -5
-13 -44 -26 -85 -13 -41 -25 -79 -26 -85 -1 -5 -53 -174 -114 -375 -62 -201
-116 -377 -120 -393 -9 -28 5 -42 48 -52 55 -13 142 -41 138 -46 -3 -3 10 -5
30 -6 19 -1 42 -7 51 -15 9 -7 18 -12 20 -10 8 6 34 1 29 -6 -2 -4 7 -9 22
-10 51 -3 62 -5 62 -14 0 -4 3 -7 8 -6 4 1 21 -1 37 -4 22 -5 31 -12 31 -27 0
-11 -3 -18 -7 -16 -8 5 -4 -631 5 -666 3 -15 8 -55 11 -90 2 -35 7 -80 11 -99
3 -19 7 -54 8 -77 0 -24 4 -43 8 -43 4 0 6 -8 6 -17 -2 -20 20 -143 32 -183 4
-14 6 -37 6 -52 -1 -14 3 -24 8 -21 5 4 7 -3 4 -15 -3 -12 -1 -23 4 -24 5 -2
11 -19 13 -38 1 -19 5 -42 8 -50 4 -8 15 -46 26 -85 11 -38 27 -91 35 -117 8
-27 12 -48 8 -48 -4 0 -1 -4 6 -9 7 -4 14 -19 15 -32 0 -13 5 -26 9 -29 4 -3
9 -15 11 -25 2 -11 9 -30 15 -43 7 -12 10 -22 7 -22 -3 0 1 -13 10 -29 8 -17
12 -38 8 -47 -4 -11 -3 -15 4 -11 9 6 30 -34 38 -73 2 -7 33 -75 56 -123 11
-22 19 -45 19 -52 0 -7 5 -15 11 -17 6 -2 12 -16 12 -31 1 -15 8 -29 16 -32 7
-3 10 -12 7 -21 -3 -8 -2 -12 4 -9 9 5 12 -1 9 -21 0 -4 3 -10 8 -13 19 -13
74 -124 69 -138 -3 -8 -2 -11 4 -8 5 3 16 -7 24 -22 8 -16 30 -53 50 -83 20
-30 34 -61 31 -67 -2 -7 -1 -12 3 -10 4 1 8 -2 9 -7 1 -5 5 -12 10 -15 11 -7
73 -97 73 -105 0 -6 24 -36 48 -61 6 -8 12 -17 12 -20 0 -4 11 -21 25 -37 14
-16 22 -35 19 -40 -4 -7 -2 -8 4 -4 11 7 17 -6 13 -27 -1 -5 3 -6 9 -2 5 3 15
-5 21 -19 l12 -26 30 35 c16 19 33 32 38 29 5 -3 8 -2 7 3 -5 16 116 144 130
138 7 -3 10 0 7 6 -4 5 4 20 17 33 12 13 45 48 72 79 27 31 54 53 59 50 6 -3
7 -2 4 4 -3 5 36 54 87 107 52 54 96 95 98 90 3 -5 3 -3 1 4 -3 15 95 118 108
114 5 -1 8 1 7 5 -5 15 30 55 42 48 7 -4 10 -1 8 6 -1 8 20 38 47 66 93 97 92
95 57 145 -87 128 -209 363 -273 528 -16 41 -34 84 -39 95 -27 60 -111 355
-126 445 -3 14 -7 36 -9 50 -11 55 -15 76 -20 115 -3 22 -8 51 -10 65 -2 14
-7 52 -10 85 -13 133 -13 180 -2 194 9 12 9 13 -1 7 -9 -5 -12 4 -12 37 0 43
1 43 30 39 17 -2 30 -9 30 -15 0 -6 3 -8 6 -5 3 4 20 2 37 -3 18 -6 41 -12 53
-15 12 -2 40 -10 63 -19 40 -14 44 -15 57 -15 4 0 0 -8 -7 -17 -11 -15 -11
-16 1 -5 17 14 54 16 45 2 -3 -5 0 -7 8 -4 7 2 27 0 43 -7 16 -6 42 -13 58
-15 17 -3 34 -10 38 -17 4 -6 8 -9 8 -5 0 4 15 2 33 -3 17 -6 43 -12 57 -15
13 -3 27 -8 30 -12 3 -4 10 -7 15 -7 26 0 124 -29 120 -35 -3 -4 1 -7 8 -7 6
1 31 -2 55 -7 29 -5 42 -13 42 -24 0 -12 3 -13 8 -5 6 9 16 9 45 -1 20 -7 35
-14 33 -17 -2 -2 12 -5 32 -6 20 -1 38 -7 40 -13 2 -5 9 -7 14 -4 6 4 17 -1
25 -11 7 -11 13 -13 13 -7 0 7 5 12 11 12 5 0 7 -5 3 -12 -4 -7 -3 -8 4 -4 15
9 63 -4 56 -15 -3 -5 2 -6 11 -3 8 4 23 0 32 -7 11 -9 14 -10 10 -2 -6 9 1 9
25 -1 18 -8 36 -15 41 -15 4 -1 8 -1 10 -2 1 0 9 -2 17 -4 94 -24 168 -50 163
-58 -4 -6 -1 -7 6 -2 14 8 101 -13 101 -25 0 -4 6 -7 13 -7 26 3 97 -15 97
-24 0 -6 4 -8 9 -5 10 6 74 -18 67 -25 -2 -2 13 -5 34 -5 20 -1 47 -7 59 -14
21 -11 21 -13 8 -33 -9 -12 -20 -21 -26 -20 -6 2 -8 -3 -6 -10 3 -9 -415 -595
-679 -949 -58 -79 -240 -327 -254 -348 -21 -31 -491 -676 -542 -745 -21 -27
-163 -223 -317 -435 -154 -212 -330 -454 -391 -537 l-112 -153 49 -36 c33 -25
48 -42 44 -53 -4 -13 -3 -13 5 -2 8 12 18 8 52 -19 32 -25 38 -35 28 -42 -9
-7 -7 -8 8 -3 14 3 29 -2 45 -17 14 -13 29 -25 34 -27 6 -1 9 -7 7 -13 -1 -5
2 -7 7 -4 5 4 21 -5 35 -19 14 -14 26 -23 26 -20 0 4 14 -3 30 -15 17 -12 28
-26 25 -31 -4 -5 1 -6 9 -3 9 3 16 1 16 -5 0 -6 5 -11 11 -11 7 0 20 -9 30
-21 9 -11 21 -21 26 -22 4 -1 7 -6 5 -10 -1 -5 2 -6 7 -3 5 4 16 1 23 -6 8 -7
23 -18 33 -25 11 -6 19 -16 17 -22 -1 -6 1 -10 5 -10 21 3 33 -2 27 -13 -4 -7
-3 -8 4 -4 7 4 23 -4 37 -18 14 -14 25 -23 25 -20 0 2 11 -3 25 -12 14 -9 22
-20 19 -25 -3 -5 0 -8 8 -7 7 2 12 -3 10 -10 -1 -8 2 -11 8 -7 15 9 62 -23 54
-37 -4 -6 -3 -8 3 -5 12 8 109 -61 105 -75 -1 -5 2 -7 8 -3 12 7 65 -32 65
-48 0 -7 8 -11 16 -9 9 1 27 -8 41 -20 14 -13 32 -27 40 -33 93 -61 127 -89
121 -98 -3 -7 -3 -9 2 -5 9 9 37 -5 71 -34 20 -18 22 -24 11 -37 -10 -14 -10
-14 5 -3 15 12 27 6 92 -42 42 -31 79 -56 83 -56 5 0 41 52 81 115 41 63 78
113 83 109 5 -3 6 2 3 10 -3 9 -1 16 6 16 6 0 9 4 6 8 -3 5 4 18 14 30 11 12
20 24 20 28 0 4 23 42 52 86 37 56 54 75 60 66 6 -8 7 -5 3 10 -7 24 11 56 25
47 5 -3 12 0 16 6 4 8 3 9 -4 5 -7 -4 -12 -5 -12 -2 0 15 105 164 112 160 4
-3 5 1 2 9 -3 8 1 21 9 29 8 8 22 28 31 46 9 18 24 32 34 32 13 0 14 2 3 9
-17 11 1 23 22 15 9 -3 13 -13 10 -22 -4 -13 -3 -14 5 -4 7 10 15 11 28 4 11
-6 38 -16 62 -23 23 -7 42 -17 42 -22 0 -6 3 -8 6 -5 3 4 38 -5 77 -19 40 -13
77 -26 82 -27 6 -2 24 -6 40 -11 17 -4 36 -13 44 -19 8 -6 16 -10 18 -8 7 6
73 -10 68 -17 -2 -4 9 -5 26 -3 16 2 29 0 29 -5 0 -5 14 -10 32 -11 18 -2 35
-6 38 -10 3 -4 16 -8 30 -9 61 -6 138 -28 133 -37 -3 -6 0 -6 7 1 8 7 21 8 34
3 11 -4 24 -8 29 -8 4 -1 29 -4 55 -8 54 -9 81 -12 102 -13 13 -1 13 -2 0 -11
-20 -13 -4 -13 20 0 10 6 21 7 24 2 2 -4 31 -9 62 -10 33 -1 62 -8 66 -15 5
-7 8 -8 8 -1 0 6 7 11 15 11 8 0 15 -5 15 -10 0 -5 7 -6 16 -3 9 4 24 1 32 -6
11 -9 14 -10 9 -1 -6 9 3 11 30 8 25 -2 37 -8 35 -17 -3 -10 -1 -11 9 -1 7 7
36 13 64 13 38 0 47 -3 35 -11 -12 -9 -11 -10 5 -4 24 9 116 12 120 5 3 -5 20
-5 145 2 25 1 51 -2 59 -6 10 -6 12 -5 7 2 -4 7 -2 12 3 12 6 0 11 -6 11 -12
0 -10 2 -10 8 -1 4 6 30 12 57 12 49 1 66 3 193 16 51 5 62 3 56 -7 -5 -9 -2
-8 10 1 10 8 32 16 49 18 18 1 53 6 79 11 32 6 51 6 59 -2 9 -8 10 -8 4 3 -6
11 -4 13 8 8 10 -3 17 -3 17 1 0 4 16 9 37 10 20 2 40 5 45 8 5 3 23 8 41 10
50 7 61 9 72 16 6 3 31 9 57 12 26 4 49 10 52 14 2 4 -41 99 -96 212 -55 113
-112 232 -128 265 -37 80 -275 571 -298 615 -13 24 -25 34 -38 33 -10 -1 -50
-5 -89 -9 -38 -3 -79 -8 -90 -11 -40 -9 -433 -11 -520 -2 -185 17 -303 37
-465 75 -94 23 -239 64 -249 71 -2 1 12 27 32 58 21 30 37 59 37 63 0 5 9 17
20 27 11 10 20 24 20 32 0 7 7 16 15 19 8 4 12 10 9 15 -3 5 0 9 6 9 6 0 8 5
4 12 -5 7 -2 9 8 6 10 -4 14 0 14 16 -1 14 5 21 17 20 14 -2 15 1 6 12 -10 13
-6 18 13 15 4 0 4 7 1 16 -5 12 -3 14 7 8 8 -5 11 -4 6 3 -6 10 86 158 107
173 5 3 9 10 10 15 1 5 5 8 8 7 4 -1 6 5 5 15 0 9 4 16 11 15 7 -2 10 4 7 12
-4 8 -1 15 5 15 6 0 11 4 11 9 0 5 14 33 32 61 22 36 36 49 47 45 12 -5 13 -3
4 5 -14 15 23 84 40 73 6 -4 8 0 4 10 -3 10 -2 17 3 17 6 0 10 5 10 10 0 16
102 170 112 170 5 0 6 5 3 10 -3 5 -1 10 5 10 6 0 8 4 5 10 -3 5 -1 10 4 10 6
0 11 7 11 15 0 8 5 15 10 15 6 0 10 7 10 16 0 8 4 12 10 9 6 -3 7 1 4 9 -3 9
-2 16 3 16 6 0 22 23 37 51 16 28 34 53 42 56 8 3 11 9 8 14 -3 5 4 19 15 31
12 12 21 27 21 34 0 7 5 16 12 20 7 5 8 3 3 -6 -5 -8 -4 -11 3 -6 6 4 9 12 7
19 -2 7 6 25 18 40 l23 28 54 -83 c30 -46 54 -90 54 -99 0 -11 6 -15 16 -11 8
3 12 2 8 -2 -4 -5 2 -18 13 -29 11 -12 17 -27 15 -34 -3 -7 -1 -12 5 -10 5 1
17 -11 27 -28 9 -16 19 -32 23 -35 7 -7 69 -100 69 -105 0 -2 43 -71 96 -152
132 -202 148 -227 148 -233 0 -3 7 -13 16 -23 9 -9 23 -29 31 -44 8 -15 22
-35 32 -45 9 -10 17 -25 17 -33 0 -8 5 -15 10 -15 6 0 10 -7 10 -15 0 -8 5
-15 10 -15 6 0 10 -6 10 -14 0 -7 7 -19 15 -26 9 -7 14 -19 11 -27 -3 -8 -2
-11 4 -8 5 3 16 -8 25 -24 8 -17 33 -56 55 -88 28 -39 38 -63 34 -77 -4 -16
-3 -17 4 -7 8 11 16 5 36 -28 15 -23 24 -46 21 -52 -4 -5 -1 -8 7 -7 7 2 12
-5 12 -14 -1 -10 1 -16 5 -14 4 3 16 -10 28 -27 85 -129 123 -190 123 -198 0
-5 5 -9 10 -9 6 0 10 -5 10 -10 0 -6 20 -39 46 -75 25 -36 42 -70 38 -77 -4
-6 -3 -8 4 -4 6 3 16 -7 24 -24 7 -16 17 -30 22 -30 4 0 5 -7 2 -16 -3 -8 -2
-13 3 -9 5 3 26 -23 47 -57 20 -35 44 -71 52 -80 8 -10 11 -18 6 -18 -5 0 -1
-5 9 -11 9 -6 15 -14 12 -20 -4 -5 -2 -9 4 -9 9 0 41 -51 41 -65 0 -2 12 -17
25 -31 14 -15 25 -33 25 -40 0 -8 5 -14 10 -14 6 0 10 -5 10 -10 0 -6 9 -21
20 -33 11 -12 18 -27 15 -35 -2 -7 -1 -11 4 -8 8 6 18 -8 19 -27 0 -5 9 -16
19 -25 20 -20 39 -47 53 -80 5 -12 14 -22 20 -22 5 0 10 -5 10 -10 0 -6 23
-45 51 -87 28 -42 51 -85 52 -94 1 -10 5 -15 9 -13 4 3 14 -7 20 -23 7 -15 21
-36 31 -45 9 -10 17 -24 17 -32 0 -8 4 -16 8 -18 12 -4 72 -94 72 -107 0 -5 6
-14 13 -18 8 -4 17 -15 20 -23 4 -8 16 -28 26 -45 23 -35 26 -49 9 -39 -7 4
-8 3 -4 -5 4 -6 11 -9 16 -6 5 3 21 -14 36 -37 15 -24 47 -73 71 -110 25 -37
42 -71 39 -77 -4 -5 -1 -13 5 -17 8 -5 9 -3 4 6 -6 9 -4 11 4 6 7 -5 10 -15 7
-23 -3 -8 -2 -12 3 -9 5 3 21 -13 36 -36 19 -28 29 -37 35 -28 4 7 13 9 20 5
8 -5 11 -4 6 3 -8 13 50 56 64 47 5 -3 8 0 5 7 -4 13 74 78 94 78 5 0 11 4 13
9 7 18 99 81 110 75 6 -4 8 -3 5 3 -6 10 69 71 172 143 20 14 40 31 44 37 4 7
12 13 17 13 6 0 19 9 30 20 12 12 26 18 32 14 7 -4 8 -3 4 4 -8 14 30 36 46
26 7 -4 8 -3 4 5 -10 15 34 52 55 47 10 -2 16 3 15 13 0 8 5 16 12 16 6 0 11
4 10 8 -4 12 44 37 56 30 5 -4 6 -1 3 4 -4 6 5 19 19 29 15 11 50 37 78 59
100 79 126 96 136 90 6 -4 7 1 3 11 -4 11 -2 15 7 12 7 -2 25 7 39 21 50 49
111 92 123 85 6 -4 8 -3 5 3 -10 16 18 34 39 27 13 -4 15 -3 7 3 -10 7 -8 13
7 26 11 9 20 14 20 10 0 -4 7 3 16 15 9 14 22 21 31 18 8 -3 12 -2 9 3 -3 4
13 21 34 37 22 16 40 32 40 37 0 7 -204 289 -405 562 -45 60 -89 122 -99 137
l-18 27 66 66 c36 37 70 64 76 60 6 -4 7 1 3 11 -5 14 -3 16 11 11 10 -4 15
-3 11 3 -7 12 29 62 39 53 3 -3 6 -1 6 6 0 7 5 9 12 5 7 -4 8 -3 4 4 -9 14 43
74 57 65 6 -3 8 -2 4 3 -7 12 48 86 57 77 3 -3 6 1 6 10 0 9 10 23 22 31 12 9
18 16 13 16 -5 0 0 8 11 18 10 10 39 47 64 82 25 35 53 71 63 82 9 10 14 18
10 18 -3 0 1 8 9 18 18 20 108 150 108 156 0 4 62 102 77 121 4 6 19 32 32 58
13 26 28 47 32 47 5 0 8 3 7 8 -3 12 13 52 21 52 4 0 14 18 21 40 7 22 17 40
21 40 4 0 10 14 14 31 4 17 13 33 20 36 8 2 11 11 8 19 -3 8 0 14 6 14 6 0 10
6 9 13 -2 6 2 11 9 10 7 -2 10 4 7 12 -4 9 -1 21 5 29 6 7 7 17 3 21 -4 5 0 6
9 3 11 -5 15 0 14 15 -3 30 5 48 18 40 5 -3 7 -1 4 4 -8 13 11 73 23 73 5 0
11 -6 13 -12 4 -10 6 -10 6 -1 1 6 -3 14 -8 17 -9 6 28 119 41 124 5 2 5 8 2
13 -3 6 -2 15 3 22 5 7 20 46 33 88 19 58 28 75 40 72 12 -4 12 -3 2 5 -15 10
-6 66 9 56 5 -3 6 2 3 10 -3 9 -3 24 1 34 5 9 10 28 12 42 2 14 10 34 17 45 6
11 11 30 10 42 -1 13 2 23 6 23 4 0 8 10 8 23 0 23 38 200 48 227 5 13 14 83
17 128 0 6 3 12 7 12 4 0 5 12 2 26 -3 15 -1 24 4 21 5 -3 9 14 10 36 0 23 4
74 8 112 3 39 9 96 11 128 l5 58 -37 -7 c-21 -4 -47 -8 -58 -10 -88 -16 -136
-24 -170 -29 -48 -7 -144 -23 -182 -31 -44 -8 -65 -12 -113 -18 -25 -3 -67
-10 -95 -16 -27 -5 -66 -12 -85 -15 -19 -3 -62 -10 -95 -16 -73 -13 -75 -14
-200 -33 -159 -25 -217 -38 -220 -50 -2 -6 -6 -29 -9 -51 -3 -22 -8 -50 -11
-63 -3 -12 -7 -30 -9 -40 -115 -514 -358 -992 -704 -1390 -30 -34 -58 -62 -61
-62 -4 0 -47 55 -96 123 -49 67 -93 127 -98 132 -4 6 -25 35 -47 65 -22 30
-43 60 -47 65 -11 13 -371 507 -533 730 -68 94 -136 187 -151 207 -16 20 -29
41 -29 47 0 5 -6 11 -12 14 -10 3 -10 7 1 20 9 11 10 17 2 17 -6 0 -11 -5 -11
-11 0 -8 -5 -8 -15 1 -24 20 -18 26 43 45 31 10 63 20 71 23 10 4 12 1 7 -9
-4 -8 0 -5 8 5 9 11 16 16 16 12 0 -5 6 -4 13 2 17 14 49 18 66 8 9 -6 12 -5
7 2 -8 13 2 19 38 26 16 3 31 8 34 10 3 3 12 0 20 -7 12 -9 14 -9 9 0 -5 8 5
15 30 22 21 6 41 10 46 11 4 0 21 7 37 15 28 14 35 13 31 -8 -1 -5 3 -6 9 -2
6 3 8 10 5 15 -4 7 40 23 70 25 6 0 15 4 21 7 23 15 65 28 59 19 -3 -5 8 -3
25 5 30 15 70 26 102 28 9 0 14 4 12 8 -5 8 24 13 59 10 10 -1 16 2 13 6 -6
11 82 34 96 26 6 -4 8 -2 5 3 -4 7 14 16 46 23 28 7 57 16 62 20 6 4 18 6 28
5 9 -2 17 1 17 6 0 6 5 7 10 4 6 -4 8 -10 5 -15 -3 -5 -1 -11 4 -15 6 -3 8 3
6 15 -2 11 0 21 6 21 14 2 19 4 82 22 32 10 63 15 69 11 6 -4 8 -3 5 3 -5 8
70 35 138 49 6 1 29 9 53 18 25 9 42 11 42 5 0 -6 6 -4 14 3 7 8 60 27 117 43
57 15 137 39 178 52 40 12 78 20 84 16 6 -3 7 -1 3 5 -10 16 7 15 23 -1 10 -8
12 -8 7 0 -4 8 22 20 81 38 49 15 95 29 103 32 8 4 22 7 30 8 8 1 22 5 30 8 8
4 26 8 40 9 14 2 27 6 30 10 3 4 15 9 25 11 11 2 28 7 37 11 9 4 22 5 28 1 5
-3 10 -2 10 3 0 9 62 27 88 25 6 0 12 3 12 7 0 5 15 12 33 16 17 4 38 9 45 11
6 2 20 5 30 7 9 3 17 5 17 6 0 1 12 4 27 5 14 2 39 10 55 18 15 8 36 13 46 12
9 -2 17 1 17 7 0 6 11 8 25 6 13 -3 22 -1 19 3 -2 4 12 11 33 15 21 4 52 13
68 20 17 7 32 12 35 12 3 1 12 3 20 5 88 27 108 31 128 31 12 -1 20 1 17 4
-10 10 70 32 95 27 17 -4 21 -3 12 3 -11 7 -7 11 13 16 14 4 30 4 35 1 4 -3
10 -1 12 5 2 6 12 12 23 14 11 3 47 12 80 21 33 9 67 17 75 18 8 1 17 5 20 8
3 4 31 14 63 23 45 13 57 21 53 32 -3 9 -17 52 -30 97 -13 45 -54 181 -91 302
-37 121 -82 270 -100 330 -18 61 -52 171 -75 245 -23 74 -43 142 -45 150 -2 8
-24 83 -50 165 -25 83 -48 157 -50 165 -3 14 -81 272 -90 297 -2 7 -78 -17
-216 -68 -116 -44 -213 -79 -214 -77 -2 2 -26 45 -55 97 -165 299 -360 573
-580 816 -70 78 -268 274 -340 337 -114 100 -123 107 -240 197 -255 195 -458
320 -745 460 -211 103 -474 210 -476 193 0 -4 -2 -16 -4 -27 -2 -11 -7 -40
-10 -65 -3 -25 -14 -99 -25 -165 -27 -172 -28 -183 -55 -360 -13 -88 -29 -191
-35 -230 -6 -38 -14 -88 -17 -110 -3 -22 -13 -90 -23 -152 l-17 -111 136 -67
c149 -74 251 -133 251 -146 0 -5 7 -6 15 -3 8 4 15 1 15 -5 0 -6 7 -11 15 -11
9 0 18 -7 21 -15 3 -8 15 -17 27 -21 42 -13 224 -150 220 -165 -2 -5 1 -8 6
-6 12 3 45 -20 93 -65 22 -21 41 -38 43 -38 11 0 150 -143 147 -151 -1 -6 2
-8 6 -5 12 7 44 -28 35 -38 -5 -4 -3 -6 2 -4 15 4 88 -79 80 -92 -3 -5 0 -8 7
-5 7 2 31 -19 53 -47 22 -28 48 -59 57 -71 10 -11 15 -24 11 -30 -3 -6 -1 -7
6 -3 6 4 14 0 18 -11 4 -10 12 -23 17 -30 39 -44 79 -103 70 -103 -4 0 3 -9
16 -20 13 -11 20 -26 17 -35 -4 -8 -3 -14 1 -12 4 1 7 -1 7 -5 0 -4 9 -13 19
-21 12 -9 16 -19 11 -27 -5 -8 -4 -11 2 -7 5 3 17 -7 26 -22 l17 -28 -93 -36
c-50 -19 -150 -56 -222 -82 -71 -26 -139 -51 -150 -56 -11 -4 -83 -31 -160
-60 -77 -28 -216 -79 -310 -114 -191 -71 -346 -129 -675 -250 -124 -46 -237
-88 -251 -93 l-26 -11 2 87 c3 94 14 490 20 717 2 77 6 217 9 310 5 160 10
316 21 725 3 96 7 254 10 350 7 212 12 407 20 680 3 113 8 273 10 355 4 141
10 350 20 703 l4 152 -894 0 -895 0 5 -177z"/>
<path d="M4070 8000 c0 -5 5 -10 11 -10 5 0 7 5 4 10 -3 6 -8 10 -11 10 -2 0
-4 -4 -4 -10z"/>
<path d="M4070 7961 c0 -6 4 -13 10 -16 6 -3 7 1 4 9 -7 18 -14 21 -14 7z"/>
<path d="M3890 7939 c0 -5 5 -7 10 -4 6 3 10 8 10 11 0 2 -4 4 -10 4 -5 0 -10
-5 -10 -11z"/>
<path d="M3935 7920 c-3 -5 -1 -10 4 -10 6 0 11 5 11 10 0 6 -2 10 -4 10 -3 0
-8 -4 -11 -10z"/>
<path d="M3756 7887 c3 -10 9 -15 12 -12 3 3 0 11 -7 18 -10 9 -11 8 -5 -6z"/>
<path d="M3795 7880 c3 -5 8 -10 11 -10 2 0 4 5 4 10 0 6 -5 10 -11 10 -5 0
-7 -4 -4 -10z"/>
<path d="M3830 7880 c0 -5 5 -10 11 -10 5 0 7 5 4 10 -3 6 -8 10 -11 10 -2 0
-4 -4 -4 -10z"/>
<path d="M6276 7878 c3 -5 10 -6 15 -3 13 9 11 12 -6 12 -8 0 -12 -4 -9 -9z"/>
<path d="M3753 7845 c0 -8 4 -12 9 -9 5 3 6 10 3 15 -9 13 -12 11 -12 -6z"/>
<path d="M6310 7846 c0 -2 7 -7 16 -10 8 -3 12 -2 9 4 -6 10 -25 14 -25 6z"/>
<path d="M6455 7740 c-3 -5 -1 -10 4 -10 6 0 11 5 11 10 0 6 -2 10 -4 10 -3 0
-8 -4 -11 -10z"/>
<path d="M6730 7580 c0 -5 5 -10 11 -10 5 0 7 5 4 10 -3 6 -8 10 -11 10 -2 0
-4 -4 -4 -10z"/>
<path d="M6770 7580 c0 -5 5 -10 11 -10 5 0 7 5 4 10 -3 6 -8 10 -11 10 -2 0
-4 -4 -4 -10z"/>
<path d="M3196 7553 c-6 -14 -5 -15 5 -6 7 7 10 15 7 18 -3 3 -9 -2 -12 -12z"/>
<path d="M3235 7561 c-3 -5 -2 -12 3 -15 5 -3 9 1 9 9 0 17 -3 19 -12 6z"/>
<path d="M3136 7518 c3 -5 10 -6 15 -3 13 9 11 12 -6 12 -8 0 -12 -4 -9 -9z"/>
<path d="M3090 7500 c0 -5 5 -10 11 -10 5 0 7 5 4 10 -3 6 -8 10 -11 10 -2 0
-4 -4 -4 -10z"/>
<path d="M3095 7460 c3 -5 8 -10 11 -10 2 0 4 5 4 10 0 6 -5 10 -11 10 -5 0
-7 -4 -4 -10z"/>
<path d="M1695 7420 c-3 -6 1 -7 9 -4 18 7 21 14 7 14 -6 0 -13 -4 -16 -10z"/>
<path d="M3035 7420 c3 -5 8 -10 11 -10 2 0 4 5 4 10 0 6 -5 10 -11 10 -5 0
-7 -4 -4 -10z"/>
<path d="M1690 7379 c0 -5 5 -7 10 -4 6 3 10 8 10 11 0 2 -4 4 -10 4 -5 0 -10
-5 -10 -11z"/>
<path d="M2975 7380 c3 -5 8 -10 11 -10 2 0 4 5 4 10 0 6 -5 10 -11 10 -5 0
-7 -4 -4 -10z"/>
<path d="M2890 7340 c0 -5 5 -10 11 -10 5 0 7 5 4 10 -3 6 -8 10 -11 10 -2 0
-4 -4 -4 -10z"/>
<path d="M7030 7326 c0 -2 7 -7 16 -10 8 -3 12 -2 9 4 -6 10 -25 14 -25 6z"/>
<path d="M1933 7289 c-2 -23 3 -25 10 -4 4 8 3 16 -1 19 -4 3 -9 -4 -9 -15z"/>
<path d="M2890 7299 c0 -5 5 -7 10 -4 6 3 10 8 10 11 0 2 -4 4 -10 4 -5 0 -10
-5 -10 -11z"/>
<path d="M1895 7260 c3 -5 8 -10 11 -10 2 0 4 5 4 10 0 6 -5 10 -11 10 -5 0
-7 -4 -4 -10z"/>
<path d="M2030 7240 c0 -5 5 -10 11 -10 5 0 7 5 4 10 -3 6 -8 10 -11 10 -2 0
-4 -4 -4 -10z"/>
<path d="M2796 7242 c-3 -5 1 -9 9 -9 8 0 12 4 9 9 -3 4 -7 8 -9 8 -2 0 -6 -4
-9 -8z"/>
<path d="M2790 7206 c0 -2 7 -7 16 -10 8 -3 12 -2 9 4 -6 10 -25 14 -25 6z"/>
<path d="M2095 7180 c-3 -5 -1 -10 4 -10 6 0 11 5 11 10 0 6 -2 10 -4 10 -3 0
-8 -4 -11 -10z"/>
<path d="M2130 7179 c0 -5 5 -7 10 -4 6 3 10 8 10 11 0 2 -4 4 -10 4 -5 0 -10
-5 -10 -11z"/>
<path d="M2170 7139 c0 -5 5 -7 10 -4 6 3 10 8 10 11 0 2 -4 4 -10 4 -5 0 -10
-5 -10 -11z"/>
<path d="M2715 7129 c-4 -6 -5 -12 -2 -15 2 -3 7 2 10 11 7 17 1 20 -8 4z"/>
<path d="M2233 7115 c0 -8 4 -12 9 -9 5 3 6 10 3 15 -9 13 -12 11 -12 -6z"/>
<path d="M2309 7083 c-13 -16 -12 -17 4 -4 16 13 21 21 13 21 -2 0 -10 -8 -17
-17z"/>
<path d="M2279 7088 c-5 -18 -6 -38 -1 -34 7 8 12 36 6 36 -2 0 -4 -1 -5 -2z"/>
<path d="M2650 7059 c0 -5 5 -7 10 -4 6 3 10 8 10 11 0 2 -4 4 -10 4 -5 0 -10
-5 -10 -11z"/>
<path d="M2386 7038 c3 -5 10 -6 15 -3 13 9 11 12 -6 12 -8 0 -12 -4 -9 -9z"/>
<path d="M2455 7020 c-3 -5 -1 -10 4 -10 6 0 11 5 11 10 0 6 -2 10 -4 10 -3 0
-8 -4 -11 -10z"/>
<path d="M2450 6979 c0 -5 5 -7 10 -4 6 3 10 8 10 11 0 2 -4 4 -10 4 -5 0 -10
-5 -10 -11z"/>
<path d="M2595 6980 c3 -5 8 -10 11 -10 2 0 4 5 4 10 0 6 -5 10 -11 10 -5 0
-7 -4 -4 -10z"/>
<path d="M7506 6842 c-3 -5 1 -9 9 -9 8 0 12 4 9 9 -3 4 -7 8 -9 8 -2 0 -6 -4
-9 -8z"/>
<path d="M196 5438 c3 -5 10 -6 15 -3 13 9 11 12 -6 12 -8 0 -12 -4 -9 -9z"/>
<path d="M350 5397 c0 -2 6 -10 14 -16 11 -9 16 -9 22 1 4 7 4 10 -1 6 -4 -4
-14 -3 -22 3 -7 6 -13 9 -13 6z"/>
<path d="M9775 5340 c3 -5 8 -10 11 -10 2 0 4 5 4 10 0 6 -5 10 -11 10 -5 0
-7 -4 -4 -10z"/>
<path d="M9516 5322 c-3 -5 1 -9 9 -9 8 0 12 4 9 9 -3 4 -7 8 -9 8 -2 0 -6 -4
-9 -8z"/>
<path d="M9380 5286 c0 -2 8 -10 18 -17 15 -13 16 -12 3 4 -13 16 -21 21 -21
13z"/>
<path d="M9515 5260 c-3 -5 -1 -10 4 -10 6 0 11 5 11 10 0 6 -2 10 -4 10 -3 0
-8 -4 -11 -10z"/>
<path d="M9266 5242 c-3 -5 1 -9 9 -9 8 0 12 4 9 9 -3 4 -7 8 -9 8 -2 0 -6 -4
-9 -8z"/>
<path d="M9316 5207 c3 -10 9 -15 12 -12 3 3 0 11 -7 18 -10 9 -11 8 -5 -6z"/>
<path d="M9070 5159 c0 -5 5 -7 10 -4 6 3 10 8 10 11 0 2 -4 4 -10 4 -5 0 -10
-5 -10 -11z"/>
<path d="M9116 5162 c-3 -5 1 -9 9 -9 8 0 12 4 9 9 -3 4 -7 8 -9 8 -2 0 -6 -4
-9 -8z"/>
<path d="M9190 5159 c0 -5 5 -7 10 -4 6 3 10 8 10 11 0 2 -4 4 -10 4 -5 0 -10
-5 -10 -11z"/>
<path d="M8775 5100 c3 -5 8 -10 11 -10 2 0 4 5 4 10 0 6 -5 10 -11 10 -5 0
-7 -4 -4 -10z"/>
<path d="M8735 5060 c3 -5 8 -10 11 -10 2 0 4 5 4 10 0 6 -5 10 -11 10 -5 0
-7 -4 -4 -10z"/>
<path d="M8775 5060 c3 -5 8 -10 11 -10 2 0 4 5 4 10 0 6 -5 10 -11 10 -5 0
-7 -4 -4 -10z"/>
<path d="M8650 5020 c0 -5 5 -10 11 -10 5 0 7 5 4 10 -3 6 -8 10 -11 10 -2 0
-4 -4 -4 -10z"/>
<path d="M8690 5020 c0 -5 5 -10 11 -10 5 0 7 5 4 10 -3 6 -8 10 -11 10 -2 0
-4 -4 -4 -10z"/>
<path d="M8545 5000 c-3 -6 1 -7 9 -4 18 7 21 14 7 14 -6 0 -13 -4 -16 -10z"/>
<path d="M1890 4979 c0 -5 5 -7 10 -4 6 3 10 8 10 11 0 2 -4 4 -10 4 -5 0 -10
-5 -10 -11z"/>
<path d="M8370 4979 c0 -5 5 -7 10 -4 6 3 10 8 10 11 0 2 -4 4 -10 4 -5 0 -10
-5 -10 -11z"/>
<path d="M2015 4940 c3 -5 8 -10 11 -10 2 0 4 5 4 10 0 6 -5 10 -11 10 -5 0
-7 -4 -4 -10z"/>
<path d="M2055 4940 c3 -5 8 -10 11 -10 2 0 4 5 4 10 0 6 -5 10 -11 10 -5 0
-7 -4 -4 -10z"/>
<path d="M8436 4942 c-3 -5 1 -9 9 -9 8 0 12 4 9 9 -3 4 -7 8 -9 8 -2 0 -6 -4
-9 -8z"/>
<path d="M2015 4900 c3 -5 8 -10 11 -10 2 0 4 5 4 10 0 6 -5 10 -11 10 -5 0
-7 -4 -4 -10z"/>
<path d="M2050 4900 c0 -5 5 -10 11 -10 5 0 7 5 4 10 -3 6 -8 10 -11 10 -2 0
-4 -4 -4 -10z"/>
<path d="M2090 4900 c0 -5 5 -10 11 -10 5 0 7 5 4 10 -3 6 -8 10 -11 10 -2 0
-4 -4 -4 -10z"/>
<path d="M8160 4880 c-9 -6 -10 -10 -3 -10 6 0 15 5 18 10 8 12 4 12 -15 0z"/>
<path d="M2135 4860 c3 -5 8 -10 11 -10 2 0 4 5 4 10 0 6 -5 10 -11 10 -5 0
-7 -4 -4 -10z"/>
<path d="M7880 4840 c-9 -6 -10 -10 -3 -10 6 0 15 5 18 10 8 12 4 12 -15 0z"/>
<path d="M2495 4800 c3 -5 8 -10 11 -10 2 0 4 5 4 10 0 6 -5 10 -11 10 -5 0
-7 -4 -4 -10z"/>
<path d="M7800 4800 c-9 -6 -10 -10 -3 -10 6 0 15 5 18 10 8 12 4 12 -15 0z"/>
<path d="M7953 4795 c0 -8 4 -12 9 -9 5 3 6 10 3 15 -9 13 -12 11 -12 -6z"/>
<path d="M7795 4760 c-3 -5 -1 -10 4 -10 6 0 11 5 11 10 0 6 -2 10 -4 10 -3 0
-8 -4 -11 -10z"/>
<path d="M2790 4659 c0 -5 5 -7 10 -4 6 3 10 8 10 11 0 2 -4 4 -10 4 -5 0 -10
-5 -10 -11z"/>
<path d="M3095 4620 c-3 -5 -1 -10 4 -10 6 0 11 5 11 10 0 6 -2 10 -4 10 -3 0
-8 -4 -11 -10z"/>
<path d="M3059 4608 c-5 -18 -6 -38 -1 -34 7 8 12 36 6 36 -2 0 -4 -1 -5 -2z"/>
<path d="M3090 4579 c0 -5 5 -7 10 -4 6 3 10 8 10 11 0 2 -4 4 -10 4 -5 0 -10
-5 -10 -11z"/>
<path d="M7050 4579 c0 -5 5 -7 10 -4 6 3 10 8 10 11 0 2 -4 4 -10 4 -5 0 -10
-5 -10 -11z"/>
<path d="M7090 4579 c0 -5 5 -7 10 -4 6 3 10 8 10 11 0 2 -4 4 -10 4 -5 0 -10
-5 -10 -11z"/>
<path d="M6999 4553 c-13 -16 -12 -17 4 -4 16 13 21 21 13 21 -2 0 -10 -8 -17
-17z"/>
<path d="M3530 4499 c0 -5 5 -7 10 -4 6 3 10 8 10 11 0 2 -4 4 -10 4 -5 0 -10
-5 -10 -11z"/>
<path d="M6770 4499 c0 -5 5 -7 10 -4 6 3 10 8 10 11 0 2 -4 4 -10 4 -5 0 -10
-5 -10 -11z"/>
<path d="M6815 4500 c-3 -5 -1 -10 4 -10 6 0 11 5 11 10 0 6 -2 10 -4 10 -3 0
-8 -4 -11 -10z"/>
<path d="M6850 4499 c0 -5 5 -7 10 -4 6 3 10 8 10 11 0 2 -4 4 -10 4 -5 0 -10
-5 -10 -11z"/>
<path d="M3615 4460 c3 -5 8 -10 11 -10 2 0 4 5 4 10 0 6 -5 10 -11 10 -5 0
-7 -4 -4 -10z"/>
<path d="M3650 4460 c0 -5 5 -10 11 -10 5 0 7 5 4 10 -3 6 -8 10 -11 10 -2 0
-4 -4 -4 -10z"/>
<path d="M6650 4460 c0 -5 5 -10 11 -10 5 0 7 5 4 10 -3 6 -8 10 -11 10 -2 0
-4 -4 -4 -10z"/>
<path d="M6690 4460 c0 -5 5 -10 11 -10 5 0 7 5 4 10 -3 6 -8 10 -11 10 -2 0
-4 -4 -4 -10z"/>
<path d="M6730 4460 c0 -5 5 -10 11 -10 5 0 7 5 4 10 -3 6 -8 10 -11 10 -2 0
-4 -4 -4 -10z"/>
<path d="M6770 4460 c0 -5 5 -10 11 -10 5 0 7 5 4 10 -3 6 -8 10 -11 10 -2 0
-4 -4 -4 -10z"/>
<path d="M6810 4459 c0 -5 5 -7 10 -4 6 3 10 8 10 11 0 2 -4 4 -10 4 -5 0 -10
-5 -10 -11z"/>
<path d="M6575 4420 c3 -5 8 -10 11 -10 2 0 4 5 4 10 0 6 -5 10 -11 10 -5 0
-7 -4 -4 -10z"/>
<path d="M6610 4420 c0 -5 5 -10 11 -10 5 0 7 5 4 10 -3 6 -8 10 -11 10 -2 0
-4 -4 -4 -10z"/>
<path d="M6650 4420 c0 -5 5 -10 11 -10 5 0 7 5 4 10 -3 6 -8 10 -11 10 -2 0
-4 -4 -4 -10z"/>
<path d="M6695 4420 c3 -5 8 -10 11 -10 2 0 4 5 4 10 0 6 -5 10 -11 10 -5 0
-7 -4 -4 -10z"/>
<path d="M6435 4409 c-4 -6 -5 -12 -2 -15 2 -3 7 2 10 11 7 17 1 20 -8 4z"/>
<path d="M935 3451 c-3 -5 -2 -12 3 -15 5 -3 9 1 9 9 0 17 -3 19 -12 6z"/>
<path d="M975 3340 c-3 -5 -1 -10 4 -10 6 0 11 5 11 10 0 6 -2 10 -4 10 -3 0
-8 -4 -11 -10z"/>
<path d="M5090 3139 c0 -5 5 -7 10 -4 6 3 10 8 10 11 0 2 -4 4 -10 4 -5 0 -10
-5 -10 -11z"/>
<path d="M4675 3040 c-3 -5 -1 -10 4 -10 6 0 11 5 11 10 0 6 -2 10 -4 10 -3 0
-8 -4 -11 -10z"/>
<path d="M5170 3019 c0 -5 5 -7 10 -4 6 3 10 8 10 11 0 2 -4 4 -10 4 -5 0 -10
-5 -10 -11z"/>
<path d="M5213 2955 c0 -8 4 -12 9 -9 5 3 6 10 3 15 -9 13 -12 11 -12 -6z"/>
<path d="M4595 2931 c-3 -5 -2 -12 3 -15 5 -3 9 1 9 9 0 17 -3 19 -12 6z"/>
<path d="M8794 2906 c1 -8 5 -18 8 -22 4 -3 5 1 4 10 -1 8 -5 18 -8 22 -4 3
-5 -1 -4 -10z"/>
<path d="M5280 2840 c-9 -6 -10 -10 -3 -10 6 0 15 5 18 10 8 12 4 12 -15 0z"/>
<path d="M5330 2779 c0 -5 5 -7 10 -4 6 3 10 8 10 11 0 2 -4 4 -10 4 -5 0 -10
-5 -10 -11z"/>
<path d="M4495 2740 c3 -5 8 -10 11 -10 2 0 4 5 4 10 0 6 -5 10 -11 10 -5 0
-7 -4 -4 -10z"/>
<path d="M4470 2720 c0 -5 5 -10 11 -10 5 0 7 5 4 10 -3 6 -8 10 -11 10 -2 0
-4 -4 -4 -10z"/>
<path d="M8635 2609 c-4 -6 -5 -12 -2 -15 2 -3 7 2 10 11 7 17 1 20 -8 4z"/>
<path d="M1415 2540 c-3 -5 -1 -10 4 -10 6 0 11 5 11 10 0 6 -2 10 -4 10 -3 0
-8 -4 -11 -10z"/>
<path d="M4370 2540 c0 -5 5 -10 11 -10 5 0 7 5 4 10 -3 6 -8 10 -11 10 -2 0
-4 -4 -4 -10z"/>
<path d="M5495 2520 c-3 -5 -1 -10 4 -10 6 0 11 5 11 10 0 6 -2 10 -4 10 -3 0
-8 -4 -11 -10z"/>
<path d="M1446 2502 c-3 -5 1 -9 9 -9 8 0 12 4 9 9 -3 4 -7 8 -9 8 -2 0 -6 -4
-9 -8z"/>
<path d="M5535 2460 c-3 -5 -1 -10 4 -10 6 0 11 5 11 10 0 6 -2 10 -4 10 -3 0
-8 -4 -11 -10z"/>
<path d="M8509 2443 c-13 -16 -12 -17 4 -4 16 13 21 21 13 21 -2 0 -10 -8 -17
-17z"/>
<path d="M8475 2411 c-3 -5 -2 -12 3 -15 5 -3 9 1 9 9 0 17 -3 19 -12 6z"/>
<path d="M1545 2360 c-3 -6 1 -7 9 -4 18 7 21 14 7 14 -6 0 -13 -4 -16 -10z"/>
<path d="M1585 2360 c-3 -6 1 -7 9 -4 18 7 21 14 7 14 -6 0 -13 -4 -16 -10z"/>
<path d="M5610 2339 c0 -5 5 -7 10 -4 6 3 10 8 10 11 0 2 -4 4 -10 4 -5 0 -10
-5 -10 -11z"/>
<path d="M5650 2260 c0 -5 5 -10 11 -10 5 0 7 5 4 10 -3 6 -8 10 -11 10 -2 0
-4 -4 -4 -10z"/>
<path d="M5735 2140 c-3 -5 -1 -10 4 -10 6 0 11 5 11 10 0 6 -2 10 -4 10 -3 0
-8 -4 -11 -10z"/>
<path d="M8215 2100 c3 -5 8 -10 11 -10 2 0 4 5 4 10 0 6 -5 10 -11 10 -5 0
-7 -4 -4 -10z"/>
<path d="M8136 2033 c-6 -14 -5 -15 5 -6 7 7 10 15 7 18 -3 3 -9 -2 -12 -12z"/>
<path d="M8130 1979 c0 -5 5 -7 10 -4 6 3 10 8 10 11 0 2 -4 4 -10 4 -5 0 -10
-5 -10 -11z"/>
<path d="M8055 1940 c3 -5 8 -10 11 -10 2 0 4 5 4 10 0 6 -5 10 -11 10 -5 0
-7 -4 -4 -10z"/>
<path d="M6170 1460 c0 -5 5 -10 11 -10 5 0 7 5 4 10 -3 6 -8 10 -11 10 -2 0
-4 -4 -4 -10z"/>
<path d="M6370 1140 c0 -5 5 -10 11 -10 5 0 7 5 4 10 -3 6 -8 10 -11 10 -2 0
-4 -4 -4 -10z"/>
<path d="M8415 1060 c-3 -5 -1 -10 4 -10 6 0 11 5 11 10 0 6 -2 10 -4 10 -3 0
-8 -4 -11 -10z"/>
<path d="M8450 1059 c0 -5 5 -7 10 -4 6 3 10 8 10 11 0 2 -4 4 -10 4 -5 0 -10
-5 -10 -11z"/>
<path d="M1669 963 c-13 -16 -12 -17 4 -4 16 13 21 21 13 21 -2 0 -10 -8 -17
-17z"/>
<path d="M3390 960 c0 -5 5 -10 11 -10 5 0 7 5 4 10 -3 6 -8 10 -11 10 -2 0
-4 -4 -4 -10z"/>
<path d="M3426 958 c3 -5 10 -6 15 -3 13 9 11 12 -6 12 -8 0 -12 -4 -9 -9z"/>
<path d="M3335 940 c-3 -5 -1 -10 4 -10 6 0 11 5 11 10 0 6 -2 10 -4 10 -3 0
-8 -4 -11 -10z"/>
<path d="M3495 940 c3 -5 8 -10 11 -10 2 0 4 5 4 10 0 6 -5 10 -11 10 -5 0 -7
-4 -4 -10z"/>
<path d="M8255 940 c3 -5 8 -10 11 -10 2 0 4 5 4 10 0 6 -5 10 -11 10 -5 0 -7
-4 -4 -10z"/>
<path d="M8290 940 c0 -5 5 -10 11 -10 5 0 7 5 4 10 -3 6 -8 10 -11 10 -2 0
-4 -4 -4 -10z"/>
<path d="M1693 915 c0 -8 4 -12 9 -9 5 3 6 10 3 15 -9 13 -12 11 -12 -6z"/>
<path d="M3495 900 c3 -5 8 -10 11 -10 2 0 4 5 4 10 0 6 -5 10 -11 10 -5 0 -7
-4 -4 -10z"/>
<path d="M3305 880 c-3 -6 1 -7 9 -4 18 7 21 14 7 14 -6 0 -13 -4 -16 -10z"/>
<path d="M3550 866 c0 -2 7 -7 16 -10 8 -3 12 -2 9 4 -6 10 -25 14 -25 6z"/>
<path d="M1855 820 c-3 -5 -1 -10 4 -10 6 0 11 5 11 10 0 6 -2 10 -4 10 -3 0
-8 -4 -11 -10z"/>
<path d="M1890 819 c0 -5 5 -7 10 -4 6 3 10 8 10 11 0 2 -4 4 -10 4 -5 0 -10
-5 -10 -11z"/>
<path d="M3250 820 c0 -5 5 -10 11 -10 5 0 7 5 4 10 -3 6 -8 10 -11 10 -2 0
-4 -4 -4 -10z"/>
<path d="M3850 820 c0 -5 5 -10 11 -10 5 0 7 5 4 10 -3 6 -8 10 -11 10 -2 0
-4 -4 -4 -10z"/>
<path d="M3890 820 c0 -5 5 -10 11 -10 5 0 7 5 4 10 -3 6 -8 10 -11 10 -2 0
-4 -4 -4 -10z"/>
<path d="M8080 800 c-9 -6 -10 -10 -3 -10 6 0 15 5 18 10 8 12 4 12 -15 0z"/>
<path d="M3850 780 c0 -5 5 -10 11 -10 5 0 7 5 4 10 -3 6 -8 10 -11 10 -2 0
-4 -4 -4 -10z"/>
<path d="M4010 780 c0 -5 5 -10 11 -10 5 0 7 5 4 10 -3 6 -8 10 -11 10 -2 0
-4 -4 -4 -10z"/>
<path d="M4055 780 c3 -5 8 -10 11 -10 2 0 4 5 4 10 0 6 -5 10 -11 10 -5 0 -7
-4 -4 -10z"/>
<path d="M5955 780 c3 -5 8 -10 11 -10 2 0 4 5 4 10 0 6 -5 10 -11 10 -5 0 -7
-4 -4 -10z"/>
<path d="M3976 762 c-2 -4 -1 -14 4 -22 7 -11 9 -9 7 8 -1 24 -3 26 -11 14z"/>
<path d="M4015 740 c3 -5 8 -10 11 -10 2 0 4 5 4 10 0 6 -5 10 -11 10 -5 0 -7
-4 -4 -10z"/>
<path d="M4055 740 c3 -5 8 -10 11 -10 2 0 4 5 4 10 0 6 -5 10 -11 10 -5 0 -7
-4 -4 -10z"/>
<path d="M7970 739 c0 -5 5 -7 10 -4 6 3 10 8 10 11 0 2 -4 4 -10 4 -5 0 -10
-5 -10 -11z"/>
<path d="M5629 723 c-13 -16 -12 -17 4 -4 16 13 21 21 13 21 -2 0 -10 -8 -17
-17z"/>
<path d="M4120 720 c-9 -6 -10 -10 -3 -10 6 0 15 5 18 10 8 12 4 12 -15 0z"/>
<path d="M7950 720 c0 -5 5 -10 11 -10 5 0 7 5 4 10 -3 6 -8 10 -11 10 -2 0
-4 -4 -4 -10z"/>
<path d="M4375 700 c-3 -5 -1 -10 4 -10 6 0 11 5 11 10 0 6 -2 10 -4 10 -3 0
-8 -4 -11 -10z"/>
<path d="M4410 699 c0 -5 5 -7 10 -4 6 3 10 8 10 11 0 2 -4 4 -10 4 -5 0 -10
-5 -10 -11z"/>
<path d="M4450 699 c0 -5 5 -7 10 -4 6 3 10 8 10 11 0 2 -4 4 -10 4 -5 0 -10
-5 -10 -11z"/>
<path d="M4515 680 c-3 -5 -1 -10 4 -10 6 0 11 5 11 10 0 6 -2 10 -4 10 -3 0
-8 -4 -11 -10z"/>
<path d="M4550 679 c0 -5 5 -7 10 -4 6 3 10 8 10 11 0 2 -4 4 -10 4 -5 0 -10
-5 -10 -11z"/>
<path d="M4590 679 c0 -5 5 -7 10 -4 6 3 10 8 10 11 0 2 -4 4 -10 4 -5 0 -10
-5 -10 -11z"/>
<path d="M5500 686 c0 -2 8 -10 18 -17 15 -13 16 -12 3 4 -13 16 -21 21 -21
13z"/>
<path d="M5676 678 c3 -5 10 -6 15 -3 13 9 11 12 -6 12 -8 0 -12 -4 -9 -9z"/>
<path d="M4415 660 c-3 -5 -1 -10 4 -10 6 0 11 5 11 10 0 6 -2 10 -4 10 -3 0
-8 -4 -11 -10z"/>
<path d="M4450 659 c0 -5 5 -7 10 -4 6 3 10 8 10 11 0 2 -4 4 -10 4 -5 0 -10
-5 -10 -11z"/>
<path d="M4810 660 c0 -5 5 -10 11 -10 5 0 7 5 4 10 -3 6 -8 10 -11 10 -2 0
-4 -4 -4 -10z"/>
<path d="M5015 660 c3 -5 8 -10 11 -10 2 0 4 5 4 10 0 6 -5 10 -11 10 -5 0 -7
-4 -4 -10z"/>
<path d="M5050 660 c0 -5 5 -10 11 -10 5 0 7 5 4 10 -3 6 -8 10 -11 10 -2 0
-4 -4 -4 -10z"/>
<path d="M7875 649 c-4 -6 -5 -12 -2 -15 2 -3 7 2 10 11 7 17 1 20 -8 4z"/>
<path d="M4556 642 c-3 -5 1 -9 9 -9 8 0 12 4 9 9 -3 4 -7 8 -9 8 -2 0 -6 -4
-9 -8z"/>
<path d="M4815 631 c-3 -5 -2 -12 3 -15 5 -3 9 1 9 9 0 17 -3 19 -12 6z"/>
<path d="M5170 619 c0 -5 5 -7 10 -4 6 3 10 8 10 11 0 2 -4 4 -10 4 -5 0 -10
-5 -10 -11z"/>
<path d="M2136 593 c-6 -14 -5 -15 5 -6 7 7 10 15 7 18 -3 3 -9 -2 -12 -12z"/>
<path d="M6749 563 c-13 -16 -12 -17 4 -4 9 7 17 15 17 17 0 8 -8 3 -21 -13z"/>
<path d="M2210 540 c0 -5 5 -10 11 -10 5 0 7 5 4 10 -3 6 -8 10 -11 10 -2 0
-4 -4 -4 -10z"/>
<path d="M2266 518 c3 -5 10 -6 15 -3 13 9 11 12 -6 12 -8 0 -12 -4 -9 -9z"/>
<path d="M3039 473 c-13 -16 -12 -17 4 -4 16 13 21 21 13 21 -2 0 -10 -8 -17
-17z"/>
<path d="M3015 420 c-3 -5 -1 -10 4 -10 6 0 11 5 11 10 0 6 -2 10 -4 10 -3 0
-8 -4 -11 -10z"/>
<path d="M2495 380 c-3 -5 -1 -10 4 -10 6 0 11 5 11 10 0 6 -2 10 -4 10 -3 0
-8 -4 -11 -10z"/>
<path d="M2496 342 c-3 -4 4 -9 15 -9 23 -2 25 3 4 10 -8 4 -16 3 -19 -1z"/>
<path d="M2935 340 c-3 -5 -1 -10 4 -10 6 0 11 5 11 10 0 6 -2 10 -4 10 -3 0
-8 -4 -11 -10z"/>
<path d="M7410 299 c0 -5 5 -7 10 -4 6 3 10 8 10 11 0 2 -4 4 -10 4 -5 0 -10
-5 -10 -11z"/>
<path d="M7330 260 c0 -5 5 -10 11 -10 5 0 7 5 4 10 -3 6 -8 10 -11 10 -2 0
-4 -4 -4 -10z"/>
<path d="M7266 162 c-3 -5 1 -9 9 -9 8 0 12 4 9 9 -3 4 -7 8 -9 8 -2 0 -6 -4
-9 -8z"/>
</g>
</svg>
