<?xml version="1.0" encoding="UTF-8" standalone="no"?>
<!-- Created with Inkscape (http://www.inkscape.org/) -->

<svg
   xmlns:dc="http://purl.org/dc/elements/1.1/"
   xmlns:cc="http://creativecommons.org/ns#"
   xmlns:rdf="http://www.w3.org/1999/02/22-rdf-syntax-ns#"
   xmlns:svg="http://www.w3.org/2000/svg"
   xmlns="http://www.w3.org/2000/svg"
   xmlns:sodipodi="http://sodipodi.sourceforge.net/DTD/sodipodi-0.dtd"
   xmlns:inkscape="http://www.inkscape.org/namespaces/inkscape"
   width="880"
   height="880"
   viewBox="0 0 880 880"
   id="svg2"
   version="1.1"
   inkscape:version="0.91 r13725"
   sodipodi:docname="omphalos.svg"
   inkscape:export-filename="/home/schlipak/web/omphalos/app/assets/img/omphalos_100.png"
   inkscape:export-xdpi="10.23"
   inkscape:export-ydpi="10.23">
  <defs
     id="defs4" />
  <sodipodi:namedview
     id="base"
     pagecolor="#ffffff"
     bordercolor="#666666"
     borderopacity="1.0"
     inkscape:pageopacity="0.0"
     inkscape:pageshadow="2"
     inkscape:zoom="0.30362104"
     inkscape:cx="1202.1255"
     inkscape:cy="126.93064"
     inkscape:document-units="px"
     inkscape:current-layer="layer1"
     showgrid="true"
     units="px"
     width="1000px"
     inkscape:window-width="1840"
     inkscape:window-height="950"
     inkscape:window-x="30"
     inkscape:window-y="80"
     inkscape:window-maximized="0"
     fit-margin-top="0"
     fit-margin-left="0"
     fit-margin-right="0"
     fit-margin-bottom="0">
    <inkscape:grid
       type="xygrid"
       id="grid4136"
       originx="-59.999995"
       originy="-59.999995" />
  </sodipodi:namedview>
  <metadata
     id="metadata7">
    <rdf:RDF>
      <cc:Work
         rdf:about="">
        <dc:format>image/svg+xml</dc:format>
        <dc:type
           rdf:resource="http://purl.org/dc/dcmitype/StillImage" />
        <dc:title></dc:title>
      </cc:Work>
    </rdf:RDF>
  </metadata>
  <g
     inkscape:label="Base"
     inkscape:groupmode="layer"
     id="layer1"
     transform="translate(-59.999995,-112.36212)"
     style="display:inline">
    <g
       id="g4183"
       inkscape:export-xdpi="10.23"
       inkscape:export-ydpi="10.23">
      <circle
         transform="scale(-1,-1)"
         r="440"
         cy="-552.36212"
         cx="-500"
         id="path4140"
         style="opacity:1;fill:#3f51b5;fill-opacity:1;stroke:#5a5a5a;stroke-width:0;stroke-miterlimit:4;stroke-dasharray:none;stroke-opacity:1" />
      <path
         id="circle4157"
         transform="translate(0,52.362128)"
         d="M 939.79297,494.14258 A 440,440 0 0 1 500,930 440,440 0 0 1 60.207031,495.85742 440,440 0 0 0 60,500 440,440 0 0 0 500,940 440,440 0 0 0 940,500 a 440,440 0 0 0 -0.20703,-5.85742 z"
         style="opacity:1;fill:#000000;fill-opacity:0.23589747;stroke:#5a5a5a;stroke-width:0;stroke-miterlimit:4;stroke-dasharray:none;stroke-opacity:1"
         inkscape:connector-curvature="0" />
      <path
         inkscape:connector-curvature="0"
         style="opacity:1;fill:#ffffff;fill-opacity:0.23589747;stroke:#5a5a5a;stroke-width:0;stroke-miterlimit:4;stroke-dasharray:none;stroke-opacity:1"
         d="M 60.20703,558.32896 A 440,440 0 0 1 500,122.47154 440,440 0 0 1 939.79297,556.61412 440,440 0 0 0 940,552.47154 a 440,440 0 0 0 -440,-440 440,440 0 0 0 -440,440 440,440 0 0 0 0.20703,5.85742 z"
         id="path4162" />
    </g>
  </g>
  <g
     inkscape:groupmode="layer"
     id="layer2"
     inkscape:label="Logo"
     style="display:inline"
     transform="translate(-59.999995,-59.999989)">
    <path
       id="path4248"
       d="m 450.65234,221.66797 1.03516,39.54101 A 250,250 0 0 0 296.47852,361.34961 l 62.92187,32.54297 a 180,180 0 0 1 94.15234,-61.37891 l 3.14258,120.11133 -202.75781,-75.19531 -30.88477,101.3789 27.96289,8.33399 A 250,250 0 0 0 250,506 250,250 0 0 0 302.23242,658.42773 l 48.58399,-51.98242 a 180,180 0 0 1 -30.73438,-98.7207 l 105.73047,31.50977 -134.94922,185.30273 83.92383,61.0957 31.07617,-48.51367 A 250,250 0 0 0 500,756 250,250 0 0 0 558.70312,748.71094 L 527.24023,683.78711 A 180,180 0 0 1 500,686 180,180 0 0 1 444.41992,676.92773 l 51.2168,-79.95507 124.87695,193.35937 83.25195,-63.10937 -30.47656,-41.71289 A 250,250 0 0 0 749.4043,522.80859 l -71.94922,12.05274 a 180,180 0 0 1 -45.88672,93.54492 l -60.73633,-83.13086 206.11524,-61.0957 -30.88477,-102.05078 -24.56836,9.09961 A 250,250 0 0 0 581.59375,270.00195 l -10.72656,70.58008 a 180,180 0 0 1 84.41797,75.16992 l -108.62305,40.23047 6.71289,-234.31445 -102.72266,0 z"
       style="font-style:normal;font-weight:normal;font-size:88px;line-height:0%;font-family:sans-serif;letter-spacing:0px;word-spacing:0px;display:inline;fill:#000000;fill-opacity:0.19607843;stroke:none;stroke-width:1px;stroke-linecap:butt;stroke-linejoin:miter;stroke-opacity:1"
       inkscape:connector-curvature="0" />
    <path
       style="font-style:normal;font-weight:normal;font-size:88px;line-height:0%;font-family:sans-serif;letter-spacing:0px;word-spacing:0px;display:inline;fill:#f8f8f2;fill-opacity:1;stroke:none;stroke-width:1px;stroke-linecap:butt;stroke-linejoin:miter;stroke-opacity:1"
       d="m 450.65234,215.66797 1.03516,39.54101 A 250,250 0 0 0 296.47852,355.34961 l 62.92187,32.54297 a 180,180 0 0 1 94.15234,-61.37891 l 3.14258,120.11133 -202.75781,-75.19531 -30.88477,101.3789 27.96289,8.33399 A 250,250 0 0 0 250,500 250,250 0 0 0 302.23242,652.42773 l 48.58399,-51.98242 a 180,180 0 0 1 -30.73438,-98.7207 l 105.73047,31.50977 -134.94922,185.30273 83.92383,61.0957 31.07617,-48.51367 A 250,250 0 0 0 500,750 250,250 0 0 0 558.70312,742.71094 L 527.24023,677.78711 A 180,180 0 0 1 500,680 180,180 0 0 1 444.41992,670.92773 l 51.2168,-79.95507 124.87695,193.35937 83.25195,-63.10937 -30.47656,-41.71289 A 250,250 0 0 0 749.4043,516.80859 l -71.94922,12.05274 a 180,180 0 0 1 -45.88672,93.54492 l -60.73633,-83.13086 206.11524,-61.0957 -30.88477,-102.05078 -24.56836,9.09961 A 250,250 0 0 0 581.59375,264.00195 l -10.72656,70.58008 a 180,180 0 0 1 84.41797,75.16992 l -108.62305,40.23047 6.71289,-234.31445 -102.72266,0 z"
       id="text4189"
       inkscape:connector-curvature="0" />
  </g>
</svg>
