<?xml version="1.0" encoding="UTF-8" standalone="no"?>
<!-- Created with Inkscape (http://www.inkscape.org/) -->

<svg
   xmlns:dc="http://purl.org/dc/elements/1.1/"
   xmlns:cc="http://creativecommons.org/ns#"
   xmlns:rdf="http://www.w3.org/1999/02/22-rdf-syntax-ns#"
   xmlns:svg="http://www.w3.org/2000/svg"
   xmlns="http://www.w3.org/2000/svg"
   xmlns:sodipodi="http://sodipodi.sourceforge.net/DTD/sodipodi-0.dtd"
   xmlns:inkscape="http://www.inkscape.org/namespaces/inkscape"
   width="880"
   height="880"
   viewBox="0 0 880 880"
   id="svg2"
   version="1.1"
   inkscape:version="0.91 r13725"
   sodipodi:docname="apollo.svg"
   inkscape:export-filename="/home/schlipak/web/omphalos/app/assets/img/omphalos_100.png"
   inkscape:export-xdpi="10.23"
   inkscape:export-ydpi="10.23">
  <defs
     id="defs4" />
  <sodipodi:namedview
     id="base"
     pagecolor="#ffffff"
     bordercolor="#666666"
     borderopacity="1.0"
     inkscape:pageopacity="0.0"
     inkscape:pageshadow="2"
     inkscape:zoom="0.82514465"
     inkscape:cx="419.69874"
     inkscape:cy="543.53712"
     inkscape:document-units="px"
     inkscape:current-layer="g4183"
     showgrid="true"
     units="px"
     width="1000px"
     inkscape:window-width="1840"
     inkscape:window-height="950"
     inkscape:window-x="30"
     inkscape:window-y="80"
     inkscape:window-maximized="0"
     fit-margin-top="0"
     fit-margin-left="0"
     fit-margin-right="0"
     fit-margin-bottom="0">
    <inkscape:grid
       type="xygrid"
       id="grid4136"
       originx="-59.999995"
       originy="-59.999995" />
  </sodipodi:namedview>
  <metadata
     id="metadata7">
    <rdf:RDF>
      <cc:Work
         rdf:about="">
        <dc:format>image/svg+xml</dc:format>
        <dc:type
           rdf:resource="http://purl.org/dc/dcmitype/StillImage" />
        <dc:title />
      </cc:Work>
    </rdf:RDF>
  </metadata>
  <g
     inkscape:label="Base"
     inkscape:groupmode="layer"
     id="layer1"
     transform="translate(-59.999995,-112.36212)"
     style="display:inline">
    <g
       id="g4183"
       inkscape:export-xdpi="10.23"
       inkscape:export-ydpi="10.23">
      <circle
         transform="scale(-1,-1)"
         r="440"
         cy="-552.36212"
         cx="-500"
         id="path4140"
         style="opacity:1;fill:#ffea94;fill-opacity:1;stroke:#5a5a5a;stroke-width:0;stroke-miterlimit:4;stroke-dasharray:none;stroke-opacity:1" />
      <path
         id="circle4157"
         transform="translate(0,52.362128)"
         d="M 939.79297,494.14258 A 440,440 0 0 1 500,930 440,440 0 0 1 60.207031,495.85742 440,440 0 0 0 60,500 440,440 0 0 0 500,940 440,440 0 0 0 940,500 a 440,440 0 0 0 -0.20703,-5.85742 z"
         style="opacity:1;fill:#000000;fill-opacity:0.23589747;stroke:#5a5a5a;stroke-width:0;stroke-miterlimit:4;stroke-dasharray:none;stroke-opacity:1"
         inkscape:connector-curvature="0" />
      <path
         inkscape:connector-curvature="0"
         style="opacity:1;fill:#ffffff;fill-opacity:0.23589747;stroke:#5a5a5a;stroke-width:0;stroke-miterlimit:4;stroke-dasharray:none;stroke-opacity:1"
         d="M 60.20703,558.32896 A 440,440 0 0 1 500,122.47154 440,440 0 0 1 939.79297,556.61412 440,440 0 0 0 940,552.47154 a 440,440 0 0 0 -440,-440 440,440 0 0 0 -440,440 440,440 0 0 0 0.20703,5.85742 z"
         id="path4162" />
    </g>
  </g>
  <g
     inkscape:groupmode="layer"
     id="layer2"
     inkscape:label="Logo"
     style="display:inline"
     transform="translate(-59.999995,-59.999989)">
    <g
       transform="translate(-4.000005,-42.000006)"
       id="g4179"
       style="fill:#000000;fill-opacity:0.11764706" />
    <circle
       r="245"
       cy="506"
       cx="506"
       id="circle4165"
       style="opacity:1;fill:#000000;fill-opacity:0.23529412;stroke:#ffffff;stroke-width:0;stroke-linecap:round;stroke-linejoin:round;stroke-miterlimit:4;stroke-dasharray:none;stroke-opacity:1" />
    <circle
       style="opacity:1;fill:#3f51b5;fill-opacity:1;stroke:#ffffff;stroke-width:0;stroke-linecap:round;stroke-linejoin:round;stroke-miterlimit:4;stroke-dasharray:none;stroke-opacity:1"
       id="path4148"
       cx="500"
       cy="500"
       r="245" />
    <text
       sodipodi:linespacing="125%"
       id="text4178"
       y="639.30078"
       x="383.59399"
       style="font-style:normal;font-weight:normal;font-size:40px;line-height:125%;font-family:sans-serif;letter-spacing:0px;word-spacing:0px;fill:#000000;fill-opacity:0.17647059;stroke:none;stroke-width:1px;stroke-linecap:butt;stroke-linejoin:miter;stroke-opacity:1;"
       xml:space="preserve"><tspan
         style="font-style:normal;font-variant:normal;font-weight:normal;font-stretch:normal;font-size:375px;font-family:Roboto;-inkscape-font-specification:Roboto;fill:#000000;fill-opacity:0.17647059;"
         y="639.30078"
         x="383.59399"
         id="tspan4180"
         sodipodi:role="line">A</tspan></text>
    <text
       xml:space="preserve"
       style="font-style:normal;font-weight:normal;font-size:40px;line-height:125%;font-family:sans-serif;letter-spacing:0px;word-spacing:0px;fill:#000000;fill-opacity:1;stroke:none;stroke-width:1px;stroke-linecap:butt;stroke-linejoin:miter;stroke-opacity:1"
       x="377.59399"
       y="633.30078"
       id="text4174"
       sodipodi:linespacing="125%"><tspan
         sodipodi:role="line"
         id="tspan4176"
         x="377.59399"
         y="633.30078"
         style="font-style:normal;font-variant:normal;font-weight:normal;font-stretch:normal;font-size:375px;font-family:Roboto;-inkscape-font-specification:Roboto;fill:#ffffff;fill-opacity:1">A</tspan></text>
    <path
       id="path4167"
       d="m 276.63281,406.49999 a 400,120 0 0 0 -176.63281,99.5 400,120 0 0 0 400,120 400,120 0 0 0 400,-120 400,120 0 0 0 -176.49806,-99.39258 245,245 0 0 1 12.53322,34.7207 320,96 0 0 1 83.96484,64.67188 320,96 0 0 1 -320,96 320,96 0 0 1 -320,-96 320,96 0 0 1 83.90038,-64.63086 245,245 0 0 1 12.73243,-34.86914 z"
       style="opacity:1;fill:#000000;fill-opacity:0.23529412;stroke:#ffffff;stroke-width:0;stroke-linecap:round;stroke-linejoin:round;stroke-miterlimit:4;stroke-dasharray:none;stroke-opacity:1"
       inkscape:connector-curvature="0" />
    <path
       style="opacity:1;fill:#000080;fill-opacity:0.0974359;stroke:#ffffff;stroke-width:0;stroke-linecap:round;stroke-linejoin:round;stroke-miterlimit:4;stroke-dasharray:none;stroke-opacity:1"
       d="M 440 195 A 245 245 0 0 0 397.38867 198.78125 A 245 245 0 0 1 601 440 A 245 245 0 0 1 398.61133 681.21875 A 245 245 0 0 0 440 685 A 245 245 0 0 0 685 440 A 245 245 0 0 0 440 195 z "
       transform="translate(59.999995,59.999989)"
       id="circle4169" />
    <path
       style="opacity:1;fill:#e91e63;fill-opacity:1;stroke:#ffffff;stroke-width:0;stroke-linecap:round;stroke-linejoin:round;stroke-miterlimit:4;stroke-dasharray:none;stroke-opacity:1"
       d="M 216.63281 340.5 A 400 120 0 0 0 40 440 A 400 120 0 0 0 440 560 A 400 120 0 0 0 840 440 A 400 120 0 0 0 663.50195 340.60742 A 245 245 0 0 1 676.03516 375.32812 A 320 96 0 0 1 760 440 A 320 96 0 0 1 440 536 A 320 96 0 0 1 120 440 A 320 96 0 0 1 203.90039 375.36914 A 245 245 0 0 1 216.63281 340.5 z "
       transform="translate(59.999995,59.999989)"
       id="path4154" />
  </g>
</svg>
