<?xml version="1.0" encoding="UTF-8" standalone="no"?>
<!-- Created with Inkscape (http://www.inkscape.org/) -->

<svg
   xmlns:dc="http://purl.org/dc/elements/1.1/"
   xmlns:cc="http://creativecommons.org/ns#"
   xmlns:rdf="http://www.w3.org/1999/02/22-rdf-syntax-ns#"
   xmlns:svg="http://www.w3.org/2000/svg"
   xmlns="http://www.w3.org/2000/svg"
   xmlns:sodipodi="http://sodipodi.sourceforge.net/DTD/sodipodi-0.dtd"
   xmlns:inkscape="http://www.inkscape.org/namespaces/inkscape"
   width="880"
   height="880"
   viewBox="0 0 880 880"
   id="svg2"
   version="1.1"
   inkscape:version="0.91 r13725"
   sodipodi:docname="hermes.svg"
   inkscape:export-filename="/home/schlipak/web/omphalos/app/assets/img/omphalos_100.png"
   inkscape:export-xdpi="10.23"
   inkscape:export-ydpi="10.23">
  <defs
     id="defs4" />
  <sodipodi:namedview
     id="base"
     pagecolor="#ffffff"
     bordercolor="#666666"
     borderopacity="1.0"
     inkscape:pageopacity="0.0"
     inkscape:pageshadow="2"
     inkscape:zoom="0.67259134"
     inkscape:cx="859.68415"
     inkscape:cy="339.47359"
     inkscape:document-units="px"
     inkscape:current-layer="layer2"
     showgrid="true"
     units="px"
     width="1000px"
     inkscape:window-width="1840"
     inkscape:window-height="950"
     inkscape:window-x="30"
     inkscape:window-y="80"
     inkscape:window-maximized="0"
     fit-margin-top="0"
     fit-margin-left="0"
     fit-margin-right="0"
     fit-margin-bottom="0">
    <inkscape:grid
       type="xygrid"
       id="grid4136"
       originx="-59.999995"
       originy="-59.999995" />
  </sodipodi:namedview>
  <metadata
     id="metadata7">
    <rdf:RDF>
      <cc:Work
         rdf:about="">
        <dc:format>image/svg+xml</dc:format>
        <dc:type
           rdf:resource="http://purl.org/dc/dcmitype/StillImage" />
        <dc:title />
      </cc:Work>
    </rdf:RDF>
  </metadata>
  <g
     inkscape:label="Base"
     inkscape:groupmode="layer"
     id="layer1"
     transform="translate(-59.999995,-112.36212)"
     style="display:inline">
    <g
       id="g4183"
       inkscape:export-xdpi="10.23"
       inkscape:export-ydpi="10.23">
      <circle
         transform="scale(-1,-1)"
         r="440"
         cy="-552.36212"
         cx="-500"
         id="path4140"
         style="opacity:1;fill:#8a739d;fill-opacity:1;stroke:#5a5a5a;stroke-width:0;stroke-miterlimit:4;stroke-dasharray:none;stroke-opacity:1" />
      <path
         id="circle4157"
         transform="translate(0,52.362128)"
         d="M 939.79297,494.14258 A 440,440 0 0 1 500,930 440,440 0 0 1 60.207031,495.85742 440,440 0 0 0 60,500 440,440 0 0 0 500,940 440,440 0 0 0 940,500 a 440,440 0 0 0 -0.20703,-5.85742 z"
         style="opacity:1;fill:#000000;fill-opacity:0.23589747;stroke:#5a5a5a;stroke-width:0;stroke-miterlimit:4;stroke-dasharray:none;stroke-opacity:1"
         inkscape:connector-curvature="0" />
      <path
         inkscape:connector-curvature="0"
         style="opacity:1;fill:#ffffff;fill-opacity:0.23589747;stroke:#5a5a5a;stroke-width:0;stroke-miterlimit:4;stroke-dasharray:none;stroke-opacity:1"
         d="M 60.20703,558.32896 A 440,440 0 0 1 500,122.47154 440,440 0 0 1 939.79297,556.61412 440,440 0 0 0 940,552.47154 a 440,440 0 0 0 -440,-440 440,440 0 0 0 -440,440 440,440 0 0 0 0.20703,5.85742 z"
         id="path4162" />
    </g>
  </g>
  <g
     inkscape:groupmode="layer"
     id="layer2"
     inkscape:label="Logo"
     style="display:inline"
     transform="translate(-59.999995,-59.999989)">
    <g
       transform="translate(-4.000005,-42.000006)"
       id="g4179"
       style="fill:#000000;fill-opacity:0.11764706">
      <rect
         style="opacity:1;fill:#000000;fill-opacity:0.11764706;stroke:#ffffff;stroke-width:0;stroke-linecap:round;stroke-linejoin:round;stroke-miterlimit:4;stroke-dasharray:none;stroke-opacity:1"
         id="rect4181"
         width="500"
         height="340"
         x="260"
         y="400"
         ry="19.999985" />
      <path
         style="opacity:1;fill:#000000;fill-opacity:0.11764706;stroke:#ffffff;stroke-width:0;stroke-linecap:round;stroke-linejoin:round;stroke-miterlimit:4;stroke-dasharray:none;stroke-opacity:1"
         d="m 280,355.99999 c -11.08,0 -20,8.92001 -20,20 l 0,10 0,10 0,20 20,0 80,0 20,0 0,-20 0,-10 0,-10 c 0,-11.07999 -8.92001,-20 -20,-20 l -80,0 z"
         id="path4183"
         inkscape:connector-curvature="0" />
    </g>
    <g
       id="g4175"
       transform="translate(-10.000005,-48.000006)">
      <rect
         ry="19.999985"
         y="400"
         x="260"
         height="340"
         width="500"
         id="rect4145"
         style="opacity:1;fill:#e0d00e;fill-opacity:1;stroke:#ffffff;stroke-width:0;stroke-linecap:round;stroke-linejoin:round;stroke-miterlimit:4;stroke-dasharray:none;stroke-opacity:1" />
      <path
         inkscape:connector-curvature="0"
         id="rect4149"
         d="m 280,355.99999 c -11.08,0 -20,8.92001 -20,20 l 0,10 0,10 0,20 20,0 80,0 20,0 0,-20 0,-10 0,-10 c 0,-11.07999 -8.92001,-20 -20,-20 l -80,0 z"
         style="opacity:1;fill:#e0d00e;fill-opacity:1;stroke:#ffffff;stroke-width:0;stroke-linecap:round;stroke-linejoin:round;stroke-miterlimit:4;stroke-dasharray:none;stroke-opacity:1" />
    </g>
    <path
       sodipodi:type="star"
       style="opacity:1;fill:#000000;fill-opacity:0.11764706;stroke:#ffffff;stroke-width:0;stroke-linecap:round;stroke-linejoin:round;stroke-miterlimit:4;stroke-dasharray:none;stroke-opacity:1"
       id="path4197"
       sodipodi:sides="4"
       sodipodi:cx="500"
       sodipodi:cy="522"
       sodipodi:r1="110"
       sodipodi:r2="55"
       sodipodi:arg1="1.5707963"
       sodipodi:arg2="2.3561945"
       inkscape:flatsided="false"
       inkscape:rounded="0"
       inkscape:randomized="0"
       d="M 500,632 461.10913,560.89087 390,522 461.10913,483.10913 500,412 538.89087,483.10913 610,522 538.89087,560.89087 Z" />
  </g>
</svg>
